<svg xmlns="http://www.w3.org/2000/svg" xmlns:xlink="http://www.w3.org/1999/xlink" width="500" zoomAndPan="magnify" viewBox="0 0 375 374.999991" height="500" preserveAspectRatio="xMidYMid meet" version="1.2"><defs><clipPath id="095ffd4c26"><path d="M 0 46.875 L 375 46.875 L 375 328.125 L 0 328.125 Z M 0 46.875 "/></clipPath></defs><g id="2d55b45b2d"><path style="fill-rule:nonzero;fill:#f4f4f4;fill-opacity:1;stroke-width:1;stroke-linecap:butt;stroke-linejoin:miter;stroke:#f4f4f4;stroke-opacity:1;stroke-miterlimit:4;" d="M 36.49999 220.000023 L 181 220.500023 L 36.49999 221.000023 Z M 221.500003 220.000023 L 227.000003 220.500023 L 221.500003 221.000023 Z M 380.500013 220.000023 L 487.00002 220.500023 L 380.500013 221.000023 Z M 591.500027 220.000023 L 644.00003 220.500023 L 591.000027 221.000023 L 590.500027 413.000035 L 590.000027 221.500023 Z M 788.50004 220.000023 L 873.000045 220.500023 L 788.00004 221.000023 L 788.00004 316.500029 L 787.00004 317.500029 L 787.50004 319.000029 L 785.50004 316.000029 L 787.00004 316.500029 L 787.00004 221.500023 Z M 880.500046 220.000023 L 963.500051 220.000023 L 965.000051 221.500023 L 964.500051 414.000035 L 964.000051 221.000023 L 880.000046 221.000023 L 880.000046 413.500035 L 879.000046 413.500035 L 879.000046 221.500023 Z M 192.500001 221.000023 L 217.000002 221.500023 L 192.500001 222.000023 Z M 232.500003 221.000023 L 235.000003 221.500023 L 232.500003 222.000023 Z M 686.500033 221.000023 L 695.000034 229.500023 L 694.500034 232.000023 L 687.000033 224.500023 L 688.000033 223.500023 Z M 37.49999 222.000023 L 37.99999 412.500035 L 36.99999 412.500035 Z M 226.500003 222.000023 L 231.000003 222.500023 L 226.500003 223.000023 Z M 380.500013 222.000023 L 381.500013 224.000023 Z M 486.50002 222.000023 L 485.50002 224.000023 Z M 486.50002 222.000023 " transform="matrix(0.375,0,0,0.375,0.0000045,46.874997)"/><path style="fill-rule:nonzero;fill:#f4f4f4;fill-opacity:1;stroke-width:1;stroke-linecap:butt;stroke-linejoin:miter;stroke:#f4f4f4;stroke-opacity:1;stroke-miterlimit:4;" d="M 635.50003 222.000023 L 685.000033 222.500023 L 635.50003 223.000023 Z M 871.500045 222.000023 L 872.000045 412.500035 L 871.000045 412.500035 Z M 235.500003 223.000023 L 238.000004 223.500023 L 235.500003 224.000023 Z M 252.500005 226.000023 L 254.000005 226.500023 L 251.500005 228.000023 Z M 257.500005 228.000023 L 256.500005 230.000023 Z M 267.500006 233.000024 L 266.500006 235.000024 Z M 272.500006 236.000024 L 272.500006 239.000024 C 270.500006 238.000024 270.500006 237.000024 272.500006 236.000024 Z M 275.500006 238.000024 L 277.000006 239.500024 L 276.500006 242.000024 L 275.000006 240.500024 Z M 704.500034 238.000024 L 711.000035 244.500024 L 710.500035 247.000024 L 704.000034 240.500024 Z M 368.500012 242.000024 L 369.500012 244.000024 Z M 281.500006 243.000024 L 287.500007 250.000025 L 285.500007 250.000025 L 280.000006 244.500024 Z M 367.500012 244.000024 L 368.500012 246.000024 Z M 366.500012 246.000024 L 367.500012 248.000024 Z M 365.500012 248.000024 L 366.500012 250.000025 Z M 364.500012 250.000025 L 365.500012 252.000025 Z M 363.500012 252.000025 L 364.500012 254.000025 Z M 503.500021 252.000025 L 502.500021 254.000025 Z M 290.500007 253.000025 C 292.500007 254.000025 292.500007 255.000025 290.500007 256.000025 C 288.500007 255.000025 288.500007 254.000025 290.500007 253.000025 Z M 720.500035 253.000025 L 727.000036 259.500025 L 726.500036 262.000025 L 720.000035 255.500025 Z M 504.500021 254.000025 L 503.500021 256.000025 Z M 505.500021 256.000025 L 504.500021 258.000025 Z M 293.500007 257.000025 L 294.500007 259.000025 L 292.000007 258.500025 Z M 506.500021 258.000025 L 505.500021 260.000025 Z M 507.500021 260.000025 L 506.500021 262.000025 Z M 508.500021 262.000025 L 507.500021 264.000026 Z M 297.500008 263.000025 L 296.500007 265.000026 Z M 509.500021 264.000026 L 508.500021 266.000026 Z M 510.500022 266.000026 L 509.500021 268.000026 Z M 736.500036 268.000026 L 744.000037 275.500026 L 743.500037 278.000026 L 736.000036 270.500026 Z M 433.500016 274.000026 L 434.500017 276.000026 L 432.000016 275.500026 Z M 304.500008 277.000026 L 303.500008 279.000027 Z M 145.499998 281.000027 L 205.000001 281.500027 L 145.499998 282.000027 Z M 122.499996 283.000027 L 179 283.500027 L 122.499996 284.000027 Z M 205.500001 283.000027 L 209.000002 283.500027 L 205.500001 284.000027 Z M 119.499996 284.000027 L 119.999996 352.500031 L 118.999996 352.500031 Z M 218.500002 284.000027 L 217.500002 286.000027 L 216.000002 285.500027 Z M 438.500017 284.000027 L 437.500017 286.000027 Z M 753.500037 284.000027 L 760.000038 290.500027 L 759.500038 293.000027 L 753.000037 286.500027 Z M 346.500011 285.000027 L 347.500011 287.000027 Z M 439.500017 286.000027 L 438.500017 288.000027 Z M 345.500011 287.000027 L 346.500011 289.000027 Z M 226.500003 288.000027 C 228.500003 289.000027 228.500003 290.000027 226.500003 291.000027 C 224.500003 290.000027 224.500003 289.000027 226.500003 288.000027 Z M 426.500016 288.000027 L 427.500016 290.000027 Z M 344.500011 289.000027 L 345.500011 291.000027 Z M 343.500011 291.000027 L 344.500011 293.000027 Z M 342.50001 293.000027 L 343.500011 295.000028 Z M 233.500003 295.000028 C 235.500003 296.000028 235.500003 297.000028 233.500003 298.000028 C 231.500003 297.000028 231.500003 296.000028 233.500003 295.000028 Z M 341.50001 295.000028 L 342.50001 297.000028 Z M 443.500017 295.000028 L 442.500017 297.000028 Z M 444.500017 297.000028 L 443.500017 299.000028 Z M 309.500008 299.000028 L 310.000008 301.500028 L 309.000008 301.500028 Z M 769.500039 299.000028 L 776.000039 305.500028 L 775.500039 308.000028 L 769.000038 301.500028 Z M 311.500008 301.000028 L 312.000008 303.500028 L 311.000008 303.500028 Z M 419.500016 303.000028 L 420.500016 305.000028 Z M 675.500032 305.000028 L 676.000032 413.500035 L 675.000032 413.500035 Z M 310.500008 306.000028 L 311.000008 311.500029 L 310.000008 311.500029 Z M 448.500017 306.000028 L 447.500017 308.000028 Z M 449.500018 308.000028 L 448.500017 310.000029 Z M 238.500004 309.000028 L 239.000004 311.500029 L 238.000004 311.500029 Z M 240.500004 311.000029 L 241.000004 321.500029 L 240.000004 321.500029 Z M 312.500009 311.000029 L 313.000009 322.500029 L 312.000008 322.500029 Z M 533.500023 311.000029 L 532.500023 313.000029 Z M 534.500023 313.000029 L 533.500023 315.000029 Z M 535.500023 315.000029 L 534.500023 317.000029 Z M 413.500015 316.000029 L 414.500015 318.000029 Z M 453.500018 317.000029 L 452.500018 319.000029 Z M 536.500023 317.000029 L 535.500023 319.000029 Z M 412.500015 318.000029 L 413.500015 320.000029 Z M 454.500018 319.000029 L 453.500018 321.000029 Z M 537.500023 319.000029 L 536.500023 321.000029 Z M 238.500004 321.000029 L 239.000004 323.500029 L 238.000004 323.500029 Z M 538.500023 321.000029 L 537.500023 323.000029 Z M 310.500008 322.000029 L 311.000008 327.50003 L 310.000008 327.50003 Z M 539.500023 323.000029 L 538.500023 325.00003 Z M 540.500023 325.00003 L 539.500023 327.00003 Z M 237.500004 326.00003 L 239.000004 329.50003 L 238.000004 329.50003 Z M 324.500009 328.00003 L 325.500009 330.00003 Z M 409.500015 328.00003 L 410.500015 329.00003 L 457.000018 329.50003 L 409.000015 330.00003 Z M 311.500008 329.00003 L 312.000008 332.50003 L 311.000008 332.50003 Z M 323.500009 330.00003 L 324.500009 332.00003 Z M 235.500003 332.00003 L 236.500004 334.00003 Z M 309.500008 332.00003 L 310.000008 334.50003 L 309.000008 334.50003 Z M 322.500009 332.00003 L 323.500009 334.00003 Z M 321.500009 334.00003 L 322.500009 336.00003 Z M 320.500009 336.00003 L 321.500009 338.00003 Z M 232.500003 337.00003 C 234.500003 338.00003 234.500003 339.00003 232.500003 340.000031 C 230.500003 339.00003 230.500003 338.00003 232.500003 337.00003 Z M 319.500009 338.00003 L 320.500009 340.000031 Z M 226.500003 343.000031 C 228.500003 344.000031 228.500003 345.000031 226.500003 346.000031 C 224.500003 345.000031 224.500003 344.000031 226.500003 343.000031 Z M 222.500003 346.000031 L 223.500003 348.000031 Z M 220.500002 347.000031 L 221.500003 349.000031 Z M 217.500002 348.000031 L 220.000002 349.500031 L 218.500002 349.000031 Z M 209.500002 350.000031 L 212.000002 350.500031 L 209.500002 351.000031 Z M 121.499996 351.000031 L 132.999997 351.500031 L 121.499996 352.000031 Z M 721.500035 351.000031 L 727.500036 357.000032 L 728.500036 356.000032 L 762.000038 389.500034 L 756.500038 385.000033 L 755.500038 386.000034 Z M 198.500001 352.000031 L 210.000002 352.500031 L 198.500001 353.000031 Z M 300.500008 362.000032 L 301.500008 364.000032 Z M 299.500008 364.000032 L 300.500008 366.000032 Z M 298.500008 366.000032 L 299.500008 368.000032 Z M 295.500007 371.000033 L 296.500007 373.000033 Z M 302.500008 371.000033 L 303.500008 373.000033 Z M 564.500025 372.000033 L 563.500025 374.000033 Z M 301.500008 373.000033 L 302.500008 375.000033 Z M 293.500007 374.000033 L 296.000007 374.500033 C 294.604174 376.69795 293.770841 376.531283 293.500007 374.000033 Z M 565.500025 374.000033 L 564.500025 376.000033 Z M 300.500008 375.000033 L 301.500008 377.000033 Z M 566.500025 376.000033 L 565.500025 378.000033 Z M 291.500007 377.000033 L 292.500007 379.000033 Z M 299.500008 377.000033 L 300.500008 379.000033 Z M 567.500025 378.000033 L 566.500025 380.000033 Z M 298.500008 379.000033 L 299.500008 381.000033 Z M 568.500025 380.000033 L 567.500025 382.000033 Z M 288.500007 381.000033 C 290.500007 382.000033 290.500007 383.000033 288.500007 384.000033 C 286.500007 383.000033 286.500007 382.000033 288.500007 381.000033 Z M 297.500008 381.000033 L 298.500008 383.000033 Z M 569.500025 382.000033 L 568.500025 384.000033 Z M 570.500025 384.000033 L 569.500025 386.000034 Z M 571.500026 386.000034 L 570.500025 388.000034 Z M 384.500013 387.000034 L 483.00002 387.500034 L 384.500013 388.000034 Z M 276.500006 393.000034 C 278.83334 394.333367 278.500006 395.666701 275.500006 397.000034 L 275.000006 394.500034 Z M 378.500013 394.000034 L 379.500013 396.000034 Z M 488.50002 394.000034 L 487.50002 396.000034 Z M 377.500013 396.000034 L 378.500013 398.000034 Z M 489.50002 396.000034 L 488.50002 398.000034 Z M 271.500006 397.000034 L 272.500006 399.000034 Z M 376.500013 398.000034 L 377.500013 400.000034 Z M 490.50002 398.000034 L 489.50002 400.000034 Z M 268.500006 399.000034 L 269.500006 401.000035 Z M 375.500013 400.000034 L 376.500013 402.000035 Z M 491.50002 400.000034 L 490.50002 402.000035 Z M 374.500013 402.000035 L 375.500013 404.000035 Z M 492.50002 402.000035 L 491.50002 404.000035 Z M 493.50002 404.000035 L 492.50002 406.000035 Z M 255.500005 405.000035 L 258.000005 406.500035 L 256.500005 406.000035 Z M 252.500005 406.000035 L 256.000005 407.500035 L 254.500005 408.000035 Z M 249.500004 407.000035 L 253.000005 408.500035 L 251.500005 409.000035 Z M 233.500003 410.000035 L 237.000004 410.500035 L 233.500003 411.000035 Z M 224.500003 411.000035 L 228.000003 411.500035 L 224.500003 412.000035 Z M 582.500026 411.000035 L 581.500026 413.000035 L 499.000021 412.500035 L 581.500026 412.000035 Z M 39.499991 412.000035 L 214.000002 412.500035 L 39.499991 413.000035 Z M 230.500003 412.000035 L 234.000003 412.500035 L 230.500003 413.000035 Z M 285.500007 412.000035 L 368.000012 412.500035 L 285.500007 413.000035 Z M 592.500027 412.000035 L 673.000032 412.500035 L 592.500027 413.000035 Z M 785.50004 412.000035 L 870.000045 412.500035 L 785.50004 413.000035 Z M 882.500046 412.000035 L 962.000051 412.500035 L 882.500046 413.000035 Z M 218.500002 413.000035 L 224.000003 413.500035 L 218.500002 414.000035 Z M 37.49999 414.000035 L 199.000001 414.500035 L 37.49999 415.000035 Z M 283.500007 414.000035 L 369.000012 414.500035 L 283.500007 415.000035 Z M 498.500021 414.000035 L 584.000026 414.500035 L 498.500021 415.000035 Z M 592.500027 414.000035 L 674.000032 414.500035 L 592.500027 415.000035 Z M 784.50004 414.000035 L 872.000045 414.500035 L 784.50004 415.000035 Z M 881.500046 414.000035 L 963.000051 414.500035 L 881.500046 415.000035 Z M 899.500047 419.000036 L 909.000048 419.500036 L 899.500047 420.000036 Z M 887.500046 420.000036 L 890.000046 420.500036 L 887.500046 421.000036 Z M 917.500048 420.000036 L 921.000048 420.500036 L 917.500048 421.000036 Z M 880.500046 421.000036 L 883.000046 421.500036 L 880.500046 422.000036 Z M 892.500047 421.000036 L 900.000047 421.500036 L 892.500047 422.000036 Z M 906.500048 421.000036 L 915.000048 421.500036 L 906.500048 422.000036 Z M 924.500049 421.000036 L 927.000049 421.500036 L 924.500049 422.000036 Z M 884.500046 422.000036 L 887.000046 422.500036 L 884.500046 423.000036 Z M 920.500048 422.000036 L 923.000049 422.500036 L 920.500048 423.000036 Z M 36.49999 423.000036 L 80.999993 423.500036 L 36.49999 424.000036 Z M 148.499998 423.000036 L 192.500001 423.000036 L 194.000001 424.500036 L 193.500001 513.000042 L 193.000001 424.000036 L 148.499998 424.000036 Z M 201.500001 423.000036 L 236.500004 423.000036 L 238.000004 424.500036 L 237.500004 513.000042 L 237.000004 424.000036 L 201.500001 424.000036 Z M 245.500004 423.000036 L 326.000009 423.500036 L 245.000004 424.000036 L 244.500004 512.000042 L 244.000004 424.500036 Z M 414.500015 423.000036 L 457.000018 423.500036 L 414.500015 424.000036 L 413.500015 425.000036 Z M 507.500021 423.000036 L 542.500024 423.000036 L 544.000024 424.500036 L 544.000024 483.00004 L 611.500028 483.00004 L 611.500028 484.00004 L 543.000024 484.00004 L 543.000024 424.000036 L 507.000021 424.000036 L 506.500021 513.000042 L 506.000021 424.500036 Z M 618.500029 423.000036 L 655.000031 423.500036 L 618.500029 424.000036 Z M 730.500036 423.000036 L 731.000036 512.500042 L 730.000036 512.500042 Z M 933.500049 423.000036 L 935.000049 423.500036 L 931.500049 425.000036 L 931.500049 424.000036 Z M 733.500036 424.000036 L 834.500043 424.000036 L 835.000043 424.500036 L 835.000043 447.000038 L 766.500038 447.000038 L 766.000038 447.500038 L 766.000038 457.500038 L 765.000038 457.500038 L 765.000038 447.500038 L 766.500038 446.000037 L 833.500043 446.000037 L 834.000043 445.500037 L 834.000043 425.000036 L 733.500036 425.000036 Z M 37.49999 425.000036 L 37.99999 511.500042 L 36.99999 511.500042 Z M 82.499993 425.000036 L 83.499993 427.000036 L 80.999993 426.500036 Z M 146.499998 425.000036 L 147.499998 427.000036 Z M 146.499998 425.000036 " transform="matrix(0.375,0,0,0.375,0.0000045,46.874997)"/><path style="fill-rule:nonzero;fill:#f4f4f4;fill-opacity:1;stroke-width:1;stroke-linecap:butt;stroke-linejoin:miter;stroke:#f4f4f4;stroke-opacity:1;stroke-miterlimit:4;" d="M 202.500001 425.000036 L 203.000001 511.500042 L 202.000001 511.500042 Z M 315.500009 425.000036 L 340.00001 425.500036 L 315.500009 426.000036 Z M 344.500011 425.000036 L 343.500011 427.000036 L 342.00001 426.500036 Z M 456.500018 425.000036 L 455.500018 427.000036 Z M 653.500031 425.000036 L 654.000031 484.50004 L 653.000031 484.50004 Z M 860.500045 427.000036 L 861.500045 429.000036 Z M 944.50005 427.000036 L 943.50005 429.000036 Z M 351.500011 428.000036 C 353.500011 429.000036 353.500011 430.000036 351.500011 431.000037 Z M 858.500044 428.000036 L 859.500044 430.000036 Z M 946.50005 428.000036 L 945.50005 430.000036 Z M 143.499997 429.000036 L 144.499997 431.000037 L 141.999997 430.500036 Z M 856.500044 429.000036 L 857.500044 431.000037 Z M 84.499994 430.000036 L 86.999994 430.500036 C 85.60416 432.697953 84.770827 432.531287 84.499994 430.000036 Z M 410.500015 430.000036 L 411.500015 432.000037 Z M 854.500044 430.000036 L 855.500044 432.000037 Z M 355.500011 431.000037 L 358.500012 435.000037 L 356.500011 435.000037 L 354.000011 432.500037 Z M 852.500044 431.000037 L 852.500044 434.000037 C 850.500044 433.000037 850.500044 432.000037 852.500044 431.000037 Z M 951.50005 431.000037 L 951.50005 434.000037 C 949.50005 433.000037 949.50005 432.000037 951.50005 431.000037 Z M 409.500015 432.000037 L 410.500015 434.000037 Z M 462.500018 433.000037 L 461.500018 435.000037 Z M 89.499994 434.000037 C 91.499994 435.000037 91.499994 436.000037 89.499994 437.000037 C 87.499994 436.000037 87.499994 435.000037 89.499994 434.000037 Z M 139.499997 434.000037 L 141.999997 434.500037 C 140.604164 436.697954 139.770831 436.531287 139.499997 434.000037 Z M 463.500018 435.000037 L 462.500018 437.000037 Z M 360.500012 437.000037 L 361.500012 439.000037 L 359.000012 438.500037 Z M 136.499997 438.000037 C 138.499997 439.000037 138.499997 440.000037 136.499997 441.000037 C 134.499997 440.000037 134.499997 439.000037 136.499997 438.000037 Z M 93.499994 439.000037 L 94.499994 441.000037 L 91.999994 440.500037 Z M 957.500051 439.000037 L 960.000051 439.500037 C 958.604218 441.697954 957.770884 441.531287 957.500051 439.000037 Z M 132.499997 443.000037 L 133.499997 445.000037 L 130.999997 444.500037 Z M 894.500047 443.000037 L 899.000047 443.500037 L 894.500047 444.000037 Z M 904.500047 443.000037 L 909.000048 443.500037 L 904.500047 444.000037 Z M 95.499994 444.000037 L 97.999994 444.500037 C 96.604161 446.697954 95.770828 446.531288 95.499994 444.000037 Z M 402.500014 445.000037 L 403.500014 447.000038 Z M 885.500046 445.000037 L 889.000046 446.500038 L 887.500046 447.000038 Z M 891.500047 445.000037 L 894.000047 445.500037 L 891.500047 446.000037 Z M 908.500048 445.000037 L 911.000048 445.500037 L 908.500048 446.000037 Z M 469.500019 446.000037 L 468.500019 448.000038 Z M 843.500043 446.000037 L 844.000043 454.500038 L 843.000043 454.500038 Z M 883.500046 446.000037 L 886.000046 447.500038 L 884.500046 448.000038 Z M 401.500014 447.000038 L 402.500014 449.000038 Z M 100.499995 448.000038 C 102.499995 449.000038 102.499995 450.000038 100.499995 451.000038 C 98.499994 450.000038 98.499994 449.000038 100.499995 448.000038 Z M 128.499996 448.000038 L 130.999997 448.500038 L 129.499997 450.000038 L 126.999996 449.500038 Z M 470.500019 448.000038 L 469.500019 450.000038 Z M 922.500049 448.000038 L 921.500049 450.000038 Z M 281.500006 449.000038 L 325.000009 449.500038 L 281.500006 450.000038 Z M 841.500043 449.000038 L 842.000043 451.500038 L 841.000043 451.500038 Z M 364.500012 450.000038 L 365.000012 452.500038 L 364.000012 452.500038 Z M 434.000016 450.000038 L 437.000017 451.500038 L 434.000016 451.500038 Z M 281.500006 451.000038 L 282.000007 463.500039 L 281.000006 463.500039 Z M 330.50001 451.000038 L 332.50001 454.000038 L 330.00001 453.500038 Z M 366.500012 452.000038 L 367.000012 459.500038 L 366.000012 459.500038 Z M 881.500046 452.000038 C 883.500046 453.000038 883.500046 454.000038 881.500046 455.000038 Z M 102.499995 453.000038 L 105.999995 454.500038 L 103.499995 455.000038 Z M 124.499996 453.000038 L 126.999996 453.500038 C 125.604163 455.697955 124.77083 455.531288 124.499996 453.000038 Z M 433.500016 453.000038 L 434.500017 455.000038 Z M 884.500046 454.000038 L 886.000046 454.500038 L 883.500046 456.000038 Z M 926.500049 454.000038 L 963.000051 454.500038 L 926.500049 455.000038 Z M 888.500046 455.000038 L 891.000047 455.500038 L 888.500046 456.000038 Z M 897.500047 456.000038 L 908.000048 456.500038 L 897.500047 457.000038 Z M 107.499995 457.000038 C 109.499995 458.000038 109.499995 459.000038 107.499995 460.000038 C 105.499995 459.000038 105.499995 458.000038 107.499995 457.000038 Z M 121.499996 457.000038 C 123.499996 458.000038 123.499996 459.000038 121.499996 460.000038 C 119.499996 459.000038 119.499996 458.000038 121.499996 457.000038 Z M 475.500019 457.000038 L 474.500019 459.000038 Z M 891.500047 457.000038 L 895.000047 457.500038 L 891.500047 458.000038 Z M 917.500048 457.000038 L 922.000049 457.500038 L 917.500048 458.000038 Z M 906.500048 458.000038 L 915.000048 458.500038 L 906.500048 459.000038 Z M 926.500049 458.000038 L 929.000049 458.500038 L 926.500049 459.000038 Z M 476.500019 459.000038 L 475.500019 461.000038 Z M 834.500043 459.000038 L 835.000043 477.50004 L 834.000043 477.50004 Z M 921.500049 459.000038 L 925.000049 459.500038 L 921.500049 460.000038 Z M 331.50001 460.000038 C 333.833343 461.333372 333.50001 462.666705 330.50001 464.000039 C 328.166676 462.666705 328.50001 461.333372 331.50001 460.000038 Z M 364.500012 460.000038 L 365.000012 462.500039 L 364.000012 462.500039 Z M 394.500014 460.000038 L 395.500014 462.000039 Z M 845.500044 460.000038 L 844.500043 462.000039 Z M 929.500049 460.000038 L 932.000049 460.500038 L 929.500049 461.000038 Z M 111.499995 462.000039 L 112.499995 464.000039 L 109.999995 463.500039 Z M 117.499996 462.000039 L 118.499996 464.000039 L 115.999996 463.500039 Z M 393.500014 462.000039 L 394.500014 464.000039 Z M 944.50005 462.000039 L 946.00005 462.500039 L 942.50005 464.000039 L 942.50005 463.000039 Z M 845.500044 463.000039 L 848.000044 463.500039 C 846.60421 465.697955 845.770877 465.531289 845.500044 463.000039 Z M 428.500016 464.000039 L 429.500016 466.000039 Z M 949.50005 464.000039 L 948.50005 466.000039 Z M 280.500006 465.000039 L 326.000009 465.500039 L 280.500006 466.000039 Z M 951.50005 465.000039 L 950.50005 467.000039 Z M 363.500012 466.000039 L 365.000012 469.500039 L 364.000012 469.500039 Z M 427.500016 466.000039 L 428.500016 468.000039 Z M 953.500051 466.000039 L 953.500051 469.000039 C 951.50005 468.000039 951.50005 467.000039 953.500051 466.000039 Z M 851.500044 467.000039 L 851.500044 470.000039 C 849.500044 469.000039 849.500044 468.000039 851.500044 467.000039 Z M 73.499993 468.000039 L 74.499993 470.000039 Z M 956.500051 468.000039 L 960.000051 471.500039 L 958.500051 473.000039 L 956.000051 470.500039 Z M 156.499998 469.000039 L 156.999998 496.500041 L 155.999998 496.500041 Z M 854.500044 469.000039 L 853.500044 471.000039 Z M 72.499993 470.000039 L 72.999993 512.500042 L 71.999993 512.500042 Z M 153.499998 470.000039 L 154.499998 472.000039 Z M 482.50002 470.000039 L 481.50002 472.000039 Z M 856.500044 470.000039 L 855.500044 472.000039 Z M 74.499993 472.000039 L 76.999993 472.500039 C 75.60416 474.697956 74.770826 474.531289 74.499993 472.000039 Z M 361.500012 472.000039 L 362.500012 474.000039 Z M 483.50002 472.000039 L 482.50002 474.000039 Z M 861.500045 472.000039 L 863.000045 472.500039 L 860.500045 474.000039 Z M 151.499998 473.000039 L 152.499998 475.000039 Z M 360.500012 474.000039 L 361.500012 476.000039 Z M 869.500045 474.000039 L 872.000045 474.500039 L 869.500045 475.000039 Z M 961.500051 474.000039 L 960.500051 476.000039 Z M 386.500013 475.000039 L 387.500013 477.00004 Z M 423.500016 475.000039 L 424.500016 476.000039 L 447.000017 476.500039 L 424.500016 477.00004 Z M 875.500045 475.000039 L 879.000046 475.500039 L 875.500045 476.000039 Z M 77.499993 476.000039 L 79.999993 476.500039 C 78.60416 478.697956 77.770826 478.53129 77.499993 476.000039 Z M 871.500045 476.000039 L 874.000045 476.500039 L 871.500045 477.00004 Z M 884.500046 476.000039 L 889.000046 476.500039 L 884.500046 477.00004 Z M 962.500051 476.000039 L 961.500051 479.00004 L 961.000051 477.50004 Z M 148.499998 477.00004 L 150.999998 477.50004 C 149.604164 479.697956 148.770831 479.53129 148.499998 477.00004 Z M 385.500013 477.00004 L 386.500013 479.00004 Z M 878.500046 477.00004 L 882.000046 477.50004 L 878.500046 478.00004 Z M 896.500047 477.00004 L 901.000047 477.50004 L 896.500047 478.00004 Z M 357.500011 478.00004 L 360.000012 478.50004 L 355.500011 483.00004 L 354.000011 481.50004 Z M 765.500038 478.00004 L 766.000038 489.50004 L 765.000038 489.50004 Z M 888.500046 478.00004 L 894.000047 478.50004 L 888.500046 479.00004 Z M 907.500048 478.00004 L 911.000048 478.50004 L 907.500048 479.00004 Z M 81.499993 479.00004 L 82.499993 481.00004 L 79.999993 480.50004 Z M 384.500013 479.00004 L 385.500013 481.00004 Z M 767.500038 479.00004 L 836.000043 479.50004 L 767.500038 480.00004 Z M 900.500047 479.00004 L 905.000047 479.50004 L 900.500047 480.00004 Z M 916.500048 479.00004 L 919.000048 479.50004 L 916.500048 480.00004 Z M 146.499998 480.00004 L 147.499998 482.00004 L 144.999998 481.50004 Z M 911.500048 480.00004 L 915.000048 480.50004 L 911.500048 481.00004 Z M 924.500049 481.00004 C 926.500049 482.00004 926.500049 483.00004 924.500049 484.00004 Z M 962.500051 482.00004 L 963.000051 486.50004 L 962.000051 486.50004 Z M 84.499994 483.00004 L 85.499994 485.00004 L 82.999993 484.50004 Z M 489.50002 483.00004 L 488.50002 485.00004 Z M 655.500031 483.00004 L 723.000035 483.50004 L 655.500031 484.00004 Z M 143.499997 484.00004 L 144.499997 486.00004 Z M 350.500011 484.00004 L 351.500011 486.00004 Z M 490.50002 485.00004 L 489.50002 487.00004 Z M 610.500028 485.00004 L 611.000028 511.500042 L 610.000028 511.500042 Z M 612.500028 485.00004 L 613.000028 511.500042 L 612.000028 511.500042 Z M 884.500046 486.00004 L 883.500046 488.00004 Z M 87.499994 487.00004 L 86.499994 489.00004 Z M 141.499997 487.00004 L 142.499997 489.00004 L 139.999997 488.50004 Z M 886.500046 487.00004 L 885.500046 489.00004 Z M 767.500038 488.00004 L 835.000043 488.50004 L 767.500038 489.00004 Z M 844.500043 488.00004 L 845.000043 489.50004 L 843.500043 492.000041 L 843.000043 490.50004 Z M 921.500049 488.00004 L 922.500049 490.00004 Z M 963.500051 489.00004 L 964.000051 491.50004 L 963.000051 491.50004 Z M 280.500006 490.00004 L 311.000008 490.50004 L 280.500006 491.00004 Z M 346.500011 490.00004 L 350.000011 491.50004 L 347.500011 492.000041 Z M 834.500043 490.00004 L 835.000043 511.500042 L 834.000043 511.500042 Z M 897.500047 490.00004 L 900.000047 490.50004 L 897.500047 491.00004 Z M 88.499994 491.00004 L 90.999994 491.50004 C 89.604161 493.697957 88.770827 493.531291 88.499994 491.00004 Z M 138.499997 491.00004 L 139.499997 493.000041 Z M 281.500006 492.000041 L 282.000007 511.500042 L 281.000006 511.500042 Z M 312.500009 492.000041 L 313.500009 494.000041 L 311.000008 493.500041 Z M 377.500013 492.000041 L 378.500013 494.000041 Z M 900.500047 492.000041 L 913.000048 492.500041 L 900.500047 493.000041 Z M 158.499998 493.000041 L 158.999998 511.500042 L 157.999998 511.500042 Z M 92.499994 494.000041 C 94.499994 495.000041 94.499994 496.000041 92.499994 497.000041 C 90.499994 496.000041 90.499994 495.000041 92.499994 494.000041 Z M 351.500011 494.000041 L 352.500011 496.000041 L 350.000011 495.500041 Z M 376.500013 494.000041 L 377.500013 496.000041 Z M 135.499997 495.000041 L 137.999997 495.500041 C 136.604164 497.697958 135.77083 497.531291 135.499997 495.000041 Z M 845.500044 495.000041 L 848.000044 495.500041 C 846.60421 497.697958 845.770877 497.531291 845.500044 495.000041 Z M 315.500009 496.000041 L 316.500009 498.000041 L 314.000009 497.500041 Z M 414.500015 496.000041 L 458.000018 496.500041 L 414.500015 497.000041 Z M 496.500021 496.000041 L 495.500021 498.000041 Z M 959.500051 496.000041 L 962.000051 496.500041 C 960.604218 498.697958 959.770884 498.531291 959.500051 496.000041 Z M 95.499994 498.000041 L 96.499994 500.000041 L 93.999994 499.500041 Z M 133.499997 498.000041 L 134.499997 500.000041 L 131.999997 499.500041 Z M 416.500015 498.000041 L 456.000018 498.500041 L 416.500015 499.000041 Z M 497.500021 498.000041 L 496.500021 500.000041 Z M 353.500011 499.000041 L 356.000011 499.500041 C 354.604178 501.697958 353.770845 501.531291 353.500011 499.000041 Z M 459.500018 499.000041 L 458.500018 501.000041 Z M 848.500044 499.000041 L 852.000044 500.500041 L 850.500044 502.000041 Z M 318.500009 500.000041 C 320.500009 501.000041 320.500009 502.000041 318.500009 503.000041 C 316.500009 502.000041 316.500009 501.000041 318.500009 500.000041 Z M 411.500015 501.000041 L 412.500015 503.000041 Z M 98.499994 502.000041 L 99.499995 504.000041 L 96.999994 503.500041 Z M 130.499997 502.000041 L 131.499997 504.000041 Z M 953.500051 502.000041 C 955.500051 503.000041 955.500051 504.000041 953.500051 505.000041 Z M 356.500011 503.000041 L 360.000012 504.500041 L 357.500011 505.000041 Z M 855.500044 503.000041 L 855.500044 506.000041 C 853.500044 505.000041 853.500044 504.000041 855.500044 503.000041 Z M 950.50005 504.000041 L 951.50005 506.000041 Z M 320.500009 505.000041 L 323.000009 505.500041 C 321.604176 507.697958 320.770842 507.531292 320.500009 505.000041 Z M 858.500044 505.000041 L 857.500044 507.000042 Z M 101.499995 506.000041 L 100.499995 508.000042 Z M 127.499996 506.000041 L 129.999997 506.500041 C 128.604163 508.697958 127.77083 508.531292 127.499996 506.000041 Z M 361.500012 507.000042 L 362.500012 509.000042 L 360.000012 508.500042 Z M 369.500012 507.000042 L 370.500012 509.000042 Z M 864.500045 508.000042 L 863.500045 510.000042 Z M 325.500009 509.000042 L 326.500009 511.000042 L 324.000009 510.500042 Z M 368.500012 509.000042 L 370.500012 511.000042 L 406.000015 511.500042 L 370.500012 512.000042 Z M 503.500021 509.000042 L 501.500021 512.000042 L 466.000019 511.500042 L 501.500021 511.000042 Z M 938.50005 509.000042 L 942.00005 510.500042 L 940.50005 511.000042 Z M 102.499995 510.000042 L 105.499995 511.000042 L 123.499996 511.000042 L 124.499996 510.000042 L 126.999996 510.500042 L 123.499996 512.000042 L 105.499995 512.000042 L 104.499995 511.000042 C 103.302078 512.666709 102.635411 512.333375 102.499995 510.000042 Z M 935.500049 510.000042 L 939.00005 511.500042 L 937.50005 512.000042 Z M 39.499991 511.000042 L 69.999993 511.500042 L 39.499991 512.000042 Z M 160.499999 511.000042 L 191.000001 511.500042 L 160.499999 512.000042 Z M 204.500001 511.000042 L 235.000003 511.500042 L 204.500001 512.000042 Z M 246.500004 511.000042 L 280.000006 511.500042 L 246.500004 512.000042 Z M 328.50001 511.000042 L 362.000012 511.500042 L 328.50001 512.000042 Z M 328.50001 511.000042 " transform="matrix(0.375,0,0,0.375,0.0000045,46.874997)"/><path style="fill-rule:nonzero;fill:#f4f4f4;fill-opacity:1;stroke-width:1;stroke-linecap:butt;stroke-linejoin:miter;stroke:#f4f4f4;stroke-opacity:1;stroke-miterlimit:4;" d="M 464.500019 511.000042 L 464.500019 513.000042 L 504.000021 513.500042 L 464.500019 514.000042 C 462.500018 513.000042 462.500018 512.000042 464.500019 511.000042 Z M 508.500021 511.000042 L 609.000028 511.500042 L 508.500021 512.000042 Z M 621.500029 511.000042 L 721.000035 511.500042 L 621.500029 512.000042 Z M 733.500036 511.000042 L 833.000043 511.500042 L 733.500036 512.000042 Z M 618.500029 512.000042 L 619.500029 513.000042 L 723.000035 513.500042 L 619.500029 514.000042 Z M 37.49999 513.000042 L 70.999993 513.500042 L 37.49999 514.000042 Z M 105.499995 513.000042 L 123.999996 513.500042 L 105.499995 514.000042 Z M 158.499998 513.000042 L 192.000001 513.500042 L 158.499998 514.000042 Z M 202.500001 513.000042 L 236.000003 513.500042 L 202.500001 514.000042 Z M 246.500004 513.000042 L 280.000006 513.500042 L 246.500004 514.000042 Z M 327.50001 513.000042 L 364.000012 513.500042 L 327.50001 514.000042 Z M 368.500012 513.000042 L 407.000015 513.500042 L 368.500012 514.000042 Z M 508.500021 513.000042 L 611.000028 513.500042 L 508.500021 514.000042 Z M 732.500036 513.000042 L 835.000043 513.500042 L 732.500036 514.000042 Z M 882.500046 513.000042 L 885.000046 513.500042 L 882.500046 514.000042 Z M 920.500048 513.000042 L 923.000049 513.500042 L 920.500048 514.000042 Z M 889.500046 514.000042 L 895.000047 514.500042 L 889.500046 515.000042 Z M 910.500048 514.000042 L 916.000048 514.500042 L 910.500048 515.000042 Z M 884.500046 515.000042 L 888.000046 515.500042 L 884.500046 516.000042 Z M 918.500048 515.000042 L 921.000048 515.500042 L 918.500048 516.000042 Z M 894.500047 516.000042 L 911.000048 516.500042 L 894.500047 517.000042 Z M 894.500047 516.000042 " transform="matrix(0.375,0,0,0.375,0.0000045,46.874997)"/><g clip-rule="nonzero" clip-path="url(#095ffd4c26)"><path style="fill-rule:nonzero;fill:#ffffff;fill-opacity:1;stroke-width:1;stroke-linecap:butt;stroke-linejoin:miter;stroke:#ffffff;stroke-opacity:1;stroke-miterlimit:4;" d="M -0.000012 0.00000820833 L 1000.000054 0.00000820833 L 1000.000054 750.000057 L -0.000012 750.000057 Z M 35.99999 220.000023 L 35.99999 414.000035 L 37.99999 415.000035 L 199.000001 415.000035 L 200.000001 414.000035 L 224.000003 414.000035 L 253.000005 409.000035 C 261.666672 406.333368 269.333339 402.333368 276.000006 397.000034 C 285.33334 389.6667 293.000007 380.6667 299.000008 370.000033 L 309.000008 346.000031 L 313.000009 323.000029 L 312.000008 302.000028 L 306.000008 280.000027 C 301.333341 268.000026 295.333341 258.000025 288.000007 250.000025 C 280.666673 241.333357 271.666673 234.333357 261.000005 229.000023 L 245.000004 223.000023 L 235.000003 221.000023 L 228.000003 221.000023 L 227.000003 220.000023 Z M 381.000013 220.000023 L 378.000013 223.000023 L 282.000007 412.000035 C 280.000006 412.666702 280.666673 413.666702 284.000007 415.000035 L 369.000012 415.000035 L 371.000012 414.000035 L 384.000013 388.000034 L 484.00002 388.000034 L 496.000021 414.000035 L 499.000021 415.000035 L 584.000026 415.000035 L 585.000026 414.000035 L 489.00002 223.000023 L 487.00002 220.000023 Z M 592.000027 220.000023 L 590.000027 222.000023 L 590.000027 413.000035 L 593.000027 415.000035 L 674.000032 415.000035 L 676.000032 414.000035 L 677.000032 306.000028 L 785.00004 415.000035 L 872.000045 415.000035 L 873.000045 414.000035 L 873.000045 220.000023 L 789.00004 220.000023 L 787.00004 222.000023 L 787.00004 316.000029 L 786.00004 314.000029 L 785.00004 314.000029 L 687.000033 221.000023 Z M 881.000046 220.000023 L 879.000046 222.000023 L 879.000046 414.000035 L 882.000046 415.000035 L 963.000051 415.000035 L 964.000051 414.000035 L 965.000051 414.000035 L 965.000051 222.000023 L 964.000051 220.000023 Z M 900.000047 419.000036 L 899.000047 420.000036 L 888.000046 420.000036 L 872.000045 423.000036 L 853.000044 431.000037 L 844.000043 440.000037 L 841.000043 450.000038 C 841.000043 455.333371 842.333377 460.000038 845.000043 464.000039 L 852.000044 470.000039 L 867.000045 476.000039 L 878.000046 477.00004 L 879.000046 478.00004 L 888.000046 478.00004 L 889.000046 479.00004 L 900.000047 479.00004 L 901.000047 480.00004 L 918.000048 481.00004 L 925.000049 485.00004 L 924.000049 487.00004 L 921.000048 489.00004 L 913.000048 491.00004 L 901.000047 491.00004 L 891.000047 489.00004 C 885.666713 487.666707 882.000046 485.333373 880.000046 482.00004 L 842.000043 482.00004 C 841.333377 490.00004 843.333377 496.000041 848.000044 500.000041 C 852.666711 504.666708 858.666711 508.333375 866.000045 511.000042 L 875.000045 514.000042 L 885.000046 516.000042 L 894.000047 516.000042 L 895.000047 517.000042 L 911.000048 517.000042 L 912.000048 516.000042 L 927.000049 515.000042 L 942.00005 511.000042 L 954.000051 505.000041 C 958.666718 502.333375 962.000051 498.000041 964.000051 492.000041 C 965.333385 482.666707 964.000051 476.000039 960.000051 472.000039 C 955.333384 466.666706 949.666717 463.000039 943.00005 461.000038 L 922.000049 457.000038 L 892.000047 456.000038 L 884.000046 454.000038 L 881.000046 452.000038 L 882.000046 450.000038 L 895.000047 445.000037 L 914.000048 446.000037 L 923.000049 450.000038 L 926.000049 455.000038 L 963.000051 455.000038 L 964.000051 454.000038 L 964.000051 449.000038 L 960.000051 440.000037 C 955.333384 433.33337 949.00005 428.33337 941.00005 425.000036 L 921.000048 420.000036 Z M 35.99999 423.000036 L 35.99999 513.000042 L 37.99999 514.000042 L 70.999993 514.000042 L 72.999993 513.000042 L 73.999993 471.000039 L 101.999995 511.000042 L 105.999995 514.000042 L 123.999996 514.000042 L 155.999998 470.000039 L 156.999998 513.000042 L 158.999998 514.000042 L 192.000001 514.000042 L 193.000001 513.000042 L 194.000001 513.000042 L 194.000001 425.000036 L 193.000001 423.000036 L 148.999998 423.000036 L 114.999996 466.000039 L 83.999994 427.000036 L 80.999993 423.000036 Z M 201.000001 423.000036 L 201.000001 513.000042 L 203.000001 514.000042 L 236.000003 514.000042 L 237.000004 513.000042 L 238.000004 513.000042 L 238.000004 425.000036 L 237.000004 423.000036 Z M 246.000004 423.000036 L 244.000004 425.000036 L 244.000004 512.000042 L 247.000004 514.000042 L 280.000006 514.000042 L 282.000007 512.000042 L 282.000007 492.000041 L 311.000008 492.000041 L 328.00001 514.000042 L 364.000012 514.000042 L 365.000012 513.000042 L 347.000011 489.00004 L 356.000011 483.00004 C 360.000012 479.666706 363.000012 475.333373 365.000012 470.000039 L 367.000012 460.000038 C 367.666679 448.000038 365.000012 439.666704 359.000012 435.000037 C 355.000011 429.666703 349.666678 426.000036 343.000011 424.000036 L 327.000009 424.000036 L 326.000009 423.000036 Z M 415.000015 423.000036 L 367.000012 513.000042 L 369.000012 514.000042 L 407.000015 514.000042 L 409.000015 512.000042 L 414.000015 500.000041 C 414.666682 498.000041 415.666682 497.666708 417.000015 499.000041 L 456.000018 499.000041 L 457.000018 498.000041 L 465.000019 514.000042 L 504.000021 514.000042 L 505.000021 513.000042 L 458.000018 425.000036 L 457.000018 423.000036 Z M 508.000021 423.000036 L 506.000021 425.000036 L 506.000021 513.000042 L 509.000021 514.000042 L 611.000028 514.000042 L 613.000028 512.000042 L 613.000028 486.00004 L 612.000028 485.00004 L 612.000028 483.00004 L 544.000024 483.00004 L 544.000024 425.000036 L 543.000024 423.000036 Z M 618.000029 423.000036 L 618.000029 513.000042 L 620.000029 514.000042 L 723.000035 514.000042 L 724.000036 513.000042 L 724.000036 485.00004 L 723.000035 483.00004 L 655.000031 483.00004 L 655.000031 423.000036 Z M 730.000036 423.000036 L 730.000036 513.000042 L 733.000036 514.000042 L 835.000043 514.000042 L 836.000043 513.000042 L 836.000043 490.00004 L 835.000043 488.00004 L 767.000038 488.00004 L 767.000038 481.00004 L 768.000038 480.00004 L 836.000043 480.00004 L 836.000043 457.000038 L 767.000038 457.000038 L 767.000038 449.000038 L 768.000038 448.000038 L 836.000043 448.000038 L 836.000043 423.000036 Z M 730.000036 423.000036 " transform="matrix(0.375,0,0,0.375,0.0000045,46.874997)"/></g><path style="fill-rule:nonzero;fill:#ffffff;fill-opacity:1;stroke-width:1;stroke-linecap:butt;stroke-linejoin:miter;stroke:#ffffff;stroke-opacity:1;stroke-miterlimit:4;" d="M 37.99999 222.000023 L 225.500003 222.000023 L 226.500003 223.000023 L 234.500003 223.000023 C 258.229172 227.60419 276.395839 237.770857 289.000007 253.500025 C 296.864591 263.302109 302.864591 274.968776 307.000008 288.500027 L 310.000008 302.500028 L 311.000008 321.500029 L 310.000008 322.500029 L 309.000008 337.50003 L 302.000008 359.500032 C 296.062507 372.895866 287.89584 384.062533 277.500006 393.000034 C 271.833339 398.000034 265.166672 402.000035 257.500005 405.000035 L 244.500004 409.000035 L 233.500003 410.000035 L 232.500003 411.000035 L 224.500003 411.000035 L 223.500003 412.000035 L 39.499991 412.000035 L 38.499991 413.000035 Z M 145.999998 281.000027 L 144.999998 282.000027 L 118.999996 282.000027 L 118.999996 353.000031 L 210.000002 353.000031 C 216.666669 351.666698 222.333336 349.333364 227.000003 346.000031 C 234.333337 340.666697 239.000004 332.666697 241.000004 322.000029 L 241.000004 312.000029 C 240.333337 305.333362 238.333337 300.333361 235.000003 297.000028 C 230.333336 289.000027 223.000003 284.000027 213.000002 282.000027 C 208.333335 283.33336 205.666668 283.000027 205.000001 281.000027 Z M 381.500013 222.000023 L 485.50002 222.000023 L 487.00002 223.500023 L 583.000026 412.500035 L 581.500026 412.000035 L 499.500021 412.000035 L 498.500021 413.000035 L 485.00002 386.000034 L 382.500013 386.000034 L 382.000013 387.500034 L 368.500012 413.000035 L 367.500012 412.000035 L 285.500007 412.000035 L 284.000007 412.500035 L 353.000011 275.500026 Z M 434.000016 274.000026 L 407.000015 330.00003 L 408.000015 331.00003 L 459.000018 331.00003 L 458.000018 326.00003 Z M 592.500027 222.000023 L 685.500033 223.000023 L 775.500039 308.000028 L 789.00004 319.000029 L 789.00004 222.000023 L 871.000045 222.000023 L 870.500045 413.000035 L 869.500045 412.000035 L 785.50004 412.000035 L 784.50004 413.000035 L 762.000038 390.500034 L 674.500032 302.000028 L 673.500032 413.000035 L 672.500032 412.000035 L 592.000027 412.000035 L 592.000027 224.500023 L 593.000027 223.500023 Z M 881.000046 222.000023 L 963.000051 222.000023 L 963.000051 412.500035 L 961.500051 412.000035 L 882.500046 412.000035 L 881.500046 413.000035 Z M 881.000046 222.000023 " transform="matrix(0.375,0,0,0.375,0.0000045,46.874997)"/><path style="fill-rule:nonzero;fill:#ffffff;fill-opacity:1;stroke-width:1;stroke-linecap:butt;stroke-linejoin:miter;stroke:#ffffff;stroke-opacity:1;stroke-miterlimit:4;" d="M 433.500016 277.000026 L 457.000018 328.50003 L 410.000015 329.00003 Z M 121.499996 283.000027 L 122.499996 284.000027 L 178.5 284.000027 L 179.5 283.000027 L 204.500001 283.000027 L 218.500002 286.000027 C 224.104169 288.062527 228.60417 291.229194 232.000003 295.500028 C 237.13542 301.031278 239.468754 309.364612 239.000004 320.500029 L 234.000003 335.50003 L 227.500003 343.000031 L 219.500002 348.000031 L 208.500002 351.000031 L 120.999996 351.000031 Z M 900.500047 421.000036 L 919.500048 422.000036 L 934.500049 425.000036 C 943.833383 427.666703 951.333384 432.166703 957.000051 438.500037 C 960.333384 442.031287 962.000051 446.864621 962.000051 453.000038 L 927.500049 453.000038 C 924.500049 448.333371 919.833382 445.333371 913.500048 444.000037 L 894.500047 443.000037 L 885.500046 445.000037 L 880.000046 449.500038 L 879.000046 452.500038 L 885.500046 457.000038 C 888.635463 456.197955 890.635463 456.531288 891.500047 458.000038 L 920.500048 459.000038 L 921.500049 460.000038 L 928.500049 460.000038 L 938.50005 462.000039 L 951.50005 467.000039 L 960.000051 474.500039 C 962.395885 478.104206 963.062551 483.43754 962.000051 490.50004 C 960.802134 495.562541 958.302134 499.395874 954.500051 502.000041 L 943.50005 508.000042 L 926.500049 513.000042 L 910.500048 514.000042 L 909.500048 515.000042 L 895.500047 515.000042 L 894.500047 514.000042 L 879.500046 513.000042 L 865.500045 509.000042 C 858.166711 506.333375 852.333377 502.166708 848.000044 496.500041 L 844.000043 487.50004 L 844.000043 484.00004 L 879.500046 484.00004 C 881.968796 487.53129 885.635463 489.864624 890.500046 491.00004 L 900.500047 493.000041 L 912.500048 493.000041 L 922.500049 490.00004 L 927.000049 485.50004 L 924.500049 481.00004 L 910.500048 478.00004 L 889.500046 477.00004 L 888.500046 476.000039 L 879.500046 476.000039 L 878.500046 475.000039 L 867.500045 474.000039 C 859.302128 472.531289 852.802127 469.364622 848.000044 464.500039 C 844.000043 460.500038 842.66671 453.833371 844.000043 444.500037 C 845.531294 440.031287 848.031294 436.531287 851.500044 434.000037 L 868.500045 426.000036 L 880.500046 423.000036 L 899.500047 422.000036 Z M 732.500036 424.000036 L 733.500036 425.000036 L 834.000043 425.000036 L 834.000043 445.500037 L 833.500043 446.000037 L 766.500038 446.000037 L 765.000038 447.500038 L 765.000038 457.500038 L 766.500038 459.000038 L 834.000043 459.000038 L 834.000043 478.00004 L 765.500038 478.00004 L 765.000038 478.50004 L 765.000038 490.00004 L 833.500043 490.00004 L 834.000043 490.50004 L 834.000043 511.500042 L 832.500043 511.000042 L 733.500036 511.000042 L 732.500036 512.000042 Z M 37.99999 425.000036 L 80.499993 425.000036 L 80.999993 426.500036 L 109.999995 462.500039 L 112.999995 468.000039 C 115.468746 469.000039 116.468746 468.500039 115.999996 466.500039 L 141.999997 434.500037 L 147.999998 425.000036 L 192.000001 425.000036 L 192.000001 511.500042 L 190.500001 511.000042 L 160.499999 511.000042 L 159.499998 512.000042 L 158.999998 493.500041 L 157.999998 492.500041 L 157.999998 466.000039 C 156.197915 465.270872 155.531248 465.770872 155.999998 467.500039 L 123.499996 511.000042 L 105.499995 511.000042 L 101.999995 507.500042 L 71.499993 466.000039 L 70.499993 512.000042 L 69.499993 511.000042 L 39.499991 511.000042 L 37.99999 511.500042 Z M 203.000001 425.000036 L 236.000003 425.000036 L 236.000003 511.500042 L 234.500003 511.000042 L 204.500001 511.000042 L 203.500001 512.000042 Z M 246.500004 425.000036 L 314.500009 425.000036 L 315.500009 426.000036 L 341.50001 426.000036 C 349.229178 427.937536 355.062511 431.77087 359.000012 437.500037 L 364.000012 447.500038 L 365.000012 459.500038 L 360.000012 475.500039 L 351.500011 484.00004 L 345.000011 487.00004 L 346.000011 490.50004 L 363.000012 511.500042 L 361.500012 511.000042 L 328.50001 511.000042 L 327.50001 512.000042 L 310.500008 490.00004 L 280.000006 490.00004 L 280.000006 510.500042 L 279.500006 511.000042 L 246.000004 511.000042 L 246.000004 427.500036 L 247.000004 426.500036 Z M 282.000007 449.000038 L 280.000006 451.000038 L 280.000006 466.000039 L 326.000009 466.000039 L 331.00001 464.000039 L 334.00001 460.000038 L 333.00001 454.000038 L 331.00001 451.000038 L 325.000009 449.000038 Z M 415.000015 425.000036 L 455.500018 425.000036 L 457.000018 426.500036 L 503.000021 511.500042 L 501.500021 511.000042 L 466.500019 511.000042 L 465.500019 512.000042 L 457.500018 496.000041 L 414.500015 496.000041 L 413.000015 497.500041 L 406.500015 512.000042 L 405.500015 511.000042 L 370.500012 511.000042 L 369.000012 511.500042 Z M 434.000016 450.000038 L 424.000016 475.000039 C 422.666682 475.666706 423.000016 476.333373 425.000016 477.00004 L 447.000017 477.00004 L 448.000017 476.000039 L 437.000017 452.000038 Z M 508.500021 425.000036 L 542.000024 425.500036 L 542.000024 485.00004 L 610.000028 485.00004 L 610.000028 511.500042 L 608.500028 511.000042 L 508.000021 511.000042 L 508.000021 427.500036 Z M 620.000029 425.000036 L 653.000031 425.000036 L 653.000031 485.00004 L 722.000035 485.00004 L 722.000035 511.500042 L 720.500035 511.000042 L 621.500029 511.000042 L 620.500029 512.000042 Z M 620.000029 425.000036 " transform="matrix(0.375,0,0,0.375,0.0000045,46.874997)"/><path style="fill-rule:nonzero;fill:#ffffff;fill-opacity:1;stroke-width:1;stroke-linecap:butt;stroke-linejoin:miter;stroke:#ffffff;stroke-opacity:1;stroke-miterlimit:4;" d="M 282.000007 451.000038 L 324.500009 451.000038 L 332.00001 455.500038 C 332.666677 459.833372 331.50001 462.333372 328.50001 463.000039 L 325.500009 464.000039 L 282.000007 464.000039 Z M 435.500017 453.000038 L 446.000017 474.500039 L 443.500017 475.000039 L 426.500016 475.000039 L 426.000016 473.500039 Z M 435.500017 453.000038 " transform="matrix(0.375,0,0,0.375,0.0000045,46.874997)"/><path style="fill-rule:nonzero;fill:#959595;fill-opacity:1;stroke-width:1;stroke-linecap:butt;stroke-linejoin:miter;stroke:#959595;stroke-opacity:1;stroke-miterlimit:4;" d="M 181.5 220.000023 L 220.500002 220.000023 L 221.500003 221.000023 L 231.500003 221.000023 L 246.500004 224.000023 C 264.833339 229.66669 279.33334 239.166691 290.000007 252.500025 C 298.468758 262.697942 304.802091 275.031276 309.000008 289.500027 L 312.000008 304.500028 L 312.000008 328.50003 L 309.000008 344.500031 C 306.333341 354.166698 302.666675 362.833365 298.000008 370.500033 C 292.666674 379.500033 286.166673 387.333367 278.500006 394.000034 L 259.500005 406.000035 L 247.500004 410.000035 L 237.500004 412.000035 L 230.500003 412.000035 L 229.500003 413.000035 L 218.500002 413.000035 L 217.500002 414.000035 L 35.99999 414.000035 L 35.99999 221.000023 L 180.5 221.000023 Z M 193.000001 221.000023 L 192.000001 222.000023 L 36.99999 222.000023 L 36.99999 413.000035 L 214.000002 413.000035 L 215.000002 412.000035 L 228.000003 412.000035 L 229.000003 411.000035 L 237.000004 411.000035 L 247.000004 409.000035 L 257.000005 406.000035 L 276.000006 395.000034 C 285.33334 387.000034 293.000007 377.6667 299.000008 367.000032 L 308.000008 344.000031 L 311.000008 328.00003 L 311.000008 307.000028 L 308.000008 291.000027 C 303.333341 274.33336 296.000007 260.666692 286.000007 250.000025 C 276.000006 238.000024 262.666672 229.66669 246.000004 225.000023 L 231.000003 222.000023 Z M 379.000013 221.000023 L 487.50002 221.000023 L 488.00002 222.500023 L 585.000026 414.000035 L 497.500021 414.000035 L 496.000021 412.500035 L 482.50002 387.000034 L 384.500013 387.000034 L 383.000013 388.500034 L 369.500012 414.000035 L 282.500007 414.000035 L 282.000007 411.500035 Z M 380.000013 222.000023 L 283.000007 413.000035 L 369.000012 413.000035 L 382.000013 388.000034 L 384.000013 386.000034 L 484.00002 386.000034 L 497.000021 412.000035 L 499.000021 413.000035 L 583.000026 413.000035 L 487.00002 224.000023 L 487.00002 222.000023 Z M 591.000027 221.000023 L 685.500033 221.000023 L 787.50004 317.000029 L 788.00004 221.000023 L 873.000045 221.000023 L 873.000045 414.000035 L 783.500039 414.000035 L 756.000038 386.500034 L 675.500032 305.000028 L 675.000032 414.000035 L 591.000027 414.000035 Z M 592.000027 222.000023 L 592.000027 413.000035 L 674.000032 413.000035 L 674.000032 304.000028 L 676.000032 303.000028 L 728.000036 357.000032 L 785.00004 413.000035 L 872.000045 413.000035 L 872.000045 222.000023 L 789.00004 222.000023 L 789.00004 319.000029 L 685.000033 222.000023 Z M 880.000046 221.000023 L 964.000051 221.000023 L 964.000051 414.000035 L 880.000046 414.000035 Z M 881.000046 222.000023 L 881.000046 413.000035 L 963.000051 413.000035 L 963.000051 222.000023 Z M 881.000046 222.000023 " transform="matrix(0.375,0,0,0.375,0.0000045,46.874997)"/><path style="fill-rule:nonzero;fill:#959595;fill-opacity:1;stroke-width:1;stroke-linecap:butt;stroke-linejoin:miter;stroke:#959595;stroke-opacity:1;stroke-miterlimit:4;" d="M 433.500016 275.000026 L 438.000017 282.500027 L 459.000018 331.00003 L 408.500015 331.00003 L 407.000015 329.50003 Z M 434.000016 277.000026 L 409.000015 329.00003 L 410.000015 330.00003 L 457.000018 330.00003 L 454.000018 321.000029 Z M 120.499996 282.000027 L 210.500002 282.000027 C 220.364586 283.80211 227.864586 287.968777 233.000003 294.500028 L 240.000004 308.500028 L 240.000004 324.50003 C 237.937504 332.770863 234.10417 339.270864 228.500003 344.000031 L 212.500002 352.000031 L 198.500001 352.000031 L 197.500001 353.000031 L 119.999996 353.000031 L 119.999996 284.500027 L 118.999996 283.500027 Z M 120.999996 283.000027 L 120.999996 352.000031 L 132.999997 352.000031 L 133.999997 351.000031 L 212.000002 351.000031 L 226.000003 345.000031 C 232.66667 340.333364 237.000004 333.333363 239.000004 324.000029 L 239.000004 310.000029 L 234.000003 298.000028 L 226.000003 289.000027 L 218.000002 285.000027 L 209.000002 283.000027 Z M 890.500046 420.000036 L 916.500048 420.000036 L 936.500049 424.000036 C 945.895883 426.937536 953.395884 431.77087 959.000051 438.500037 C 962.197968 442.500037 963.864635 447.666704 964.000051 454.000038 L 926.500049 454.000038 C 923.833382 450.000038 919.833382 447.333371 914.500048 446.000037 L 910.500048 445.000037 L 891.500047 445.000037 L 884.500046 447.000038 L 881.000046 450.500038 L 882.500046 454.000038 L 897.500047 457.000038 L 916.500048 457.000038 L 917.500048 458.000038 L 932.500049 459.000038 L 946.50005 463.000039 L 954.500051 467.000039 L 961.000051 473.500039 L 964.000051 481.50004 L 964.000051 488.50004 C 963.000051 495.166707 960.166718 500.000041 955.500051 503.000041 L 945.50005 509.000042 L 924.500049 515.000042 C 920.833382 514.000042 918.500048 514.333375 917.500048 516.000042 L 888.500046 516.000042 L 872.500045 513.000042 L 861.500045 509.000042 C 855.697961 506.197958 850.864627 502.364625 847.000044 497.500041 C 844.13546 494.031291 842.468793 489.364624 842.000043 483.50004 L 843.500043 482.00004 L 879.500046 482.00004 C 882.229213 486.270873 886.562546 488.93754 892.500047 490.00004 L 897.500047 491.00004 L 914.500048 491.00004 L 921.500049 489.00004 L 925.000049 485.50004 C 925.729215 483.302123 925.229215 482.46879 923.500049 483.00004 L 914.500048 480.00004 L 905.500047 480.00004 L 904.500047 479.00004 L 894.500047 479.00004 L 893.500047 478.00004 L 882.500046 478.00004 L 881.500046 477.00004 L 868.500045 476.000039 C 859.562544 474.270873 852.395877 470.770872 847.000044 465.500039 L 842.000043 455.500038 L 842.000043 445.500037 C 843.468793 439.968787 846.302127 435.80212 850.500044 433.000037 L 869.500045 424.000036 Z M 893.000047 421.000036 L 871.000045 425.000036 L 853.000044 433.000037 C 847.66671 435.666703 844.333377 440.33337 843.000043 447.000038 L 843.000043 455.000038 L 847.000044 464.000039 L 855.000044 470.000039 L 870.000045 475.000039 L 916.000048 479.00004 L 924.000049 481.00004 C 926.000049 481.666707 926.666716 483.666707 926.000049 487.00004 L 924.000049 489.00004 L 916.000048 492.000041 L 897.000047 492.000041 L 892.000047 491.00004 C 886.666713 489.666707 882.666713 487.333374 880.000046 484.00004 L 843.000043 485.00004 L 844.000043 490.00004 L 850.000044 500.000041 L 865.000045 509.000042 L 878.000046 513.000042 L 889.000046 514.000042 L 890.000046 515.000042 L 916.000048 515.000042 L 917.000048 514.000042 L 929.000049 513.000042 C 938.333383 511.000042 946.666717 507.666708 954.000051 503.000041 L 960.000051 497.000041 L 963.000051 487.00004 L 962.000051 478.00004 L 959.000051 473.000039 L 949.00005 465.000039 L 932.000049 460.000038 L 916.000048 459.000038 L 915.000048 458.000038 L 896.000047 458.000038 C 894.666713 456.000038 892.000047 455.666705 888.000046 457.000038 L 882.000046 454.000038 C 879.333379 454.666705 878.666712 453.333371 880.000046 450.000038 L 883.000046 447.000038 L 891.000047 444.000037 L 899.000047 444.000037 L 900.000047 443.000037 L 912.000048 444.000037 L 919.000048 446.000037 L 928.000049 453.000038 L 962.000051 453.000038 C 962.666718 447.666704 961.666718 443.666704 959.000051 441.000037 L 951.00005 432.000037 L 933.000049 424.000036 L 923.000049 422.000036 L 916.000048 422.000036 L 915.000048 421.000036 Z M 731.000036 423.000036 L 835.500043 423.000036 L 836.000043 423.500036 L 836.000043 448.000038 L 767.500038 448.000038 L 767.000038 448.500038 L 767.000038 457.000038 L 834.500043 457.000038 L 836.000043 458.500038 L 836.000043 479.00004 L 767.500038 479.00004 L 767.000038 479.50004 L 767.000038 489.00004 L 836.000043 489.00004 L 836.000043 513.000042 L 731.000036 513.000042 Z M 732.000036 424.000036 L 732.000036 512.000042 L 835.000043 512.000042 L 835.000043 490.00004 L 766.000038 490.00004 L 766.000038 479.00004 L 767.000038 478.00004 L 835.000043 478.00004 L 835.000043 459.000038 L 766.000038 459.000038 L 766.000038 448.000038 L 767.000038 447.000038 L 835.000043 447.000038 L 835.000043 424.000036 Z M 35.99999 424.000036 L 81.499993 424.000036 L 81.999993 425.500036 L 114.499996 466.000039 L 143.999997 429.500036 L 146.999998 424.000036 L 193.000001 424.000036 L 193.000001 513.000042 L 156.999998 513.000042 L 156.999998 469.500039 L 153.999998 471.500039 L 124.999996 513.000042 L 104.499995 513.000042 L 103.999995 511.500042 L 72.499993 470.000039 L 71.999993 513.000042 L 35.99999 513.000042 Z M 36.99999 425.000036 L 36.99999 512.000042 L 70.999993 512.000042 L 70.999993 468.000039 L 72.999993 467.000039 L 103.999995 511.000042 L 105.999995 512.000042 L 123.999996 512.000042 L 153.999998 470.000039 L 157.999998 467.000039 L 157.999998 512.000042 L 192.000001 512.000042 L 192.000001 425.000036 L 148.999998 425.000036 L 114.999996 468.000039 L 81.999993 427.000036 L 80.999993 425.000036 Z M 201.000001 424.000036 L 237.000004 424.000036 L 237.000004 513.000042 L 201.000001 513.000042 Z M 202.000001 425.000036 L 202.000001 512.000042 L 236.000003 512.000042 L 236.000003 425.000036 Z M 245.000004 424.000036 L 340.50001 424.000036 C 348.968761 426.197953 355.468761 430.36462 360.000012 436.500037 C 365.468762 442.031287 367.468762 451.031288 366.000012 463.500039 C 364.062512 473.229206 359.562512 480.395873 352.500011 485.00004 L 347.000011 488.50004 L 365.000012 513.000042 L 326.500009 513.000042 L 325.000009 511.500042 L 310.500008 492.000041 L 281.000006 492.000041 L 281.000006 512.500042 L 280.500006 513.000042 L 245.000004 513.000042 Z M 246.000004 425.000036 L 246.000004 512.000042 L 280.000006 512.000042 L 280.000006 491.00004 L 312.000008 491.00004 L 328.00001 512.000042 L 363.000012 512.000042 L 345.000011 489.00004 L 355.000011 482.00004 C 360.333345 477.333373 363.666679 471.000039 365.000012 463.000039 C 366.333345 449.666704 363.666679 440.33337 357.000011 435.000037 C 352.333344 430.33337 346.666677 427.000036 340.00001 425.000036 Z M 414.500015 424.000036 L 457.500018 424.000036 L 458.000018 425.500036 L 505.000021 512.500042 L 464.500019 513.000042 C 461.166685 508.864625 459.000018 503.864625 458.000018 498.000041 L 414.500015 498.000041 L 414.000015 499.500041 L 408.000015 513.000042 L 367.000012 512.500042 Z M 416.000015 425.000036 L 369.000012 511.000042 L 370.000012 512.000042 L 407.000015 512.000042 L 413.000015 499.000041 L 414.000015 497.000041 L 459.000018 497.000041 L 464.000018 510.000042 L 465.000019 512.000042 L 503.000021 512.000042 L 457.000018 427.000036 L 457.000018 425.000036 Z M 507.000021 424.000036 L 543.000024 424.000036 L 543.000024 484.00004 L 612.000028 484.00004 L 612.000028 513.000042 L 507.000021 513.000042 Z M 508.000021 425.000036 L 508.000021 512.000042 L 611.000028 512.000042 L 611.000028 485.00004 L 542.000024 485.00004 L 542.000024 425.000036 Z M 618.000029 424.000036 L 655.000031 424.000036 L 655.000031 484.00004 L 724.000036 484.00004 L 724.000036 513.000042 L 619.500029 513.000042 L 618.000029 511.500042 Z M 620.000029 425.000036 L 620.000029 512.000042 L 722.000035 512.000042 L 722.000035 485.00004 L 654.000031 485.00004 L 654.000031 425.000036 Z M 620.000029 425.000036 " transform="matrix(0.375,0,0,0.375,0.0000045,46.874997)"/><path style="fill-rule:nonzero;fill:#959595;fill-opacity:1;stroke-width:1;stroke-linecap:butt;stroke-linejoin:miter;stroke:#959595;stroke-opacity:1;stroke-miterlimit:4;" d="M 280.000006 450.000038 L 327.50001 450.000038 L 333.00001 454.500038 L 334.00001 458.500038 L 329.50001 464.000039 L 327.50001 465.000039 L 280.000006 465.000039 Z M 281.000006 451.000038 L 281.000006 464.000039 L 327.000009 464.000039 L 330.00001 463.000039 L 333.00001 458.000038 L 331.00001 453.000038 L 327.000009 451.000038 Z M 435.500017 451.000038 L 448.000017 476.000039 L 424.500016 476.000039 L 424.000016 473.500039 Z M 436.000017 453.000038 L 425.000016 475.000039 L 446.000017 475.000039 Z M 436.000017 453.000038 " transform="matrix(0.375,0,0,0.375,0.0000045,46.874997)"/></g></svg>