<?xml version="1.0" standalone="no"?>
<!DOCTYPE svg PUBLIC "-//W3C//DTD SVG 20010904//EN"
 "http://www.w3.org/TR/2001/REC-SVG-20010904/DTD/svg10.dtd">
<svg version="1.0" xmlns="http://www.w3.org/2000/svg"
 width="2000.000000pt" height="1500.000000pt" viewBox="0 0 2000.000000 1500.000000"
 preserveAspectRatio="xMidYMid meet">

<g transform="translate(0.000000,1500.000000) scale(0.100000,-0.100000)"
fill="#000000" stroke="none">
<path d="M2233 10583 l-1503 -3 0 -1930 0 -1930 1568 2 1567 3 -1562 2 -1563
3 0 1920 0 1920 1498 3 c2265 3 2226 4 2382 -17 174 -23 324 -62 478 -124 423
-172 708 -442 918 -868 260 -529 281 -1131 57 -1688 -167 -416 -466 -762 -808
-934 -261 -130 -571 -187 -1105 -201 l-265 -8 188 -1 c438 -4 824 52 1086 157
662 265 1128 1107 1063 1919 -23 283 -87 512 -211 767 -110 224 -222 378 -385
532 -257 242 -615 405 -1006 458 -153 21 -331 22 -2397 18z"/>
<path d="M7574 10528 c-15 -29 -456 -892 -981 -1917 -525 -1025 -952 -1870
-949 -1878 5 -11 155 -13 878 -11 l873 3 135 265 136 265 1004 0 1004 0 135
-265 136 -265 873 -3 c694 -2 872 0 872 10 0 7 -439 875 -974 1928 l-974 1915
-1071 3 -1071 2 -26 -52z m3131 -1868 c533 -1050 971 -1914 973 -1920 3 -7
-279 -10 -860 -10 l-864 0 -138 270 -137 270 -1009 0 -1009 0 -137 -270 -138
-270 -865 2 c-763 3 -866 5 -864 18 2 8 441 871 975 1917 l973 1902 1065 0
1065 0 970 -1909z"/>
<path d="M8408 8948 c-142 -304 -256 -553 -254 -555 1 -2 232 -2 513 -1 l511
3 -251 553 c-139 303 -254 552 -257 552 -3 0 -121 -248 -262 -552z m507 2
c132 -291 241 -534 243 -540 3 -7 -156 -10 -493 -10 -469 0 -497 1 -491 18 15
40 491 1061 496 1062 3 0 113 -239 245 -530z"/>
<path d="M11822 8654 l3 -1929 837 -3 838 -2 2 1102 3 1102 1089 -1102 1089
-1102 883 0 884 0 0 1930 0 1930 -845 0 -845 0 -2 -965 -3 -965 -1021 959
-1021 959 -947 7 -946 8 2 -1929z m1196 1909 l691 -6 1028 -965 1028 -965 3
972 2 971 835 0 835 0 0 -1920 0 -1920 -878 0 -878 0 -731 743 c-403 408 -896
906 -1097 1107 l-366 365 0 -1108 0 -1107 -827 2 -828 3 -3 1918 -2 1917 248
0 c137 0 560 -3 940 -7z"/>
<path d="M17602 8653 l3 -1928 838 -3 837 -2 0 1930 0 1930 -840 0 -840 0 2
-1927z m1668 -3 l0 -1920 -827 2 -828 3 -3 1918 -2 1917 830 0 830 0 0 -1920z"/>
<path d="M2818 9353 l-418 -3 0 -700 0 -700 363 1 c199 1 612 4 917 8 541 7
557 8 625 30 119 39 204 89 286 171 85 84 138 170 177 288 23 67 26 94 26 217
1 155 -14 219 -77 340 -78 147 -277 296 -429 321 -18 2 -1 -6 39 -19 215 -73
365 -221 435 -432 20 -60 23 -90 23 -210 -1 -126 -4 -148 -28 -220 -76 -219
-228 -371 -442 -442 l-80 -27 -555 -7 c-305 -4 -716 -7 -912 -8 l-358 -1 0
689 0 689 823 7 c565 4 850 3 912 -4 107 -13 122 -13 75 1 -38 11 -692 16
-1402 11z"/>
<path d="M18028 6593 c23 -2 61 -2 85 0 23 2 4 4 -43 4 -47 0 -66 -2 -42 -4z"/>
<path d="M17785 6580 c-27 -4 4 -5 70 -2 66 2 122 6 124 8 7 6 -140 1 -194 -6z"/>
<path d="M18266 6580 c363 -29 650 -128 817 -280 98 -89 152 -193 171 -322 l7
-48 -357 0 -357 0 -52 49 c-101 96 -210 131 -430 138 -231 8 -402 -32 -446
-104 -60 -96 61 -148 366 -157 l150 -5 -136 9 c-215 12 -325 35 -371 77 -43
39 2 101 95 132 106 35 189 44 346 38 213 -8 331 -47 424 -139 l48 -48 366 0
365 0 -6 48 c-23 161 -85 268 -218 374 -165 133 -485 232 -778 243 l-115 4
111 -9z"/>
<path d="M17610 6555 c-73 -17 -34 -17 55 0 44 8 57 13 35 13 -19 0 -60 -6
-90 -13z"/>
<path d="M17505 6535 c-5 -2 -53 -15 -105 -30 -186 -51 -354 -138 -441 -227
-130 -133 -148 -356 -44 -534 77 -131 284 -227 580 -269 117 -16 552 -56 595
-54 47 2 -5 8 -250 29 -470 40 -647 80 -805 185 -166 111 -227 355 -135 541
70 143 255 255 550 334 58 16 96 28 85 28 -11 0 -24 -1 -30 -3z"/>
<path d="M14620 5635 l0 -895 1045 0 1045 0 0 240 0 240 -690 0 -690 0 0 100
0 100 690 0 690 0 0 210 0 210 -687 2 -688 3 -3 103 -3 102 691 0 690 0 0 240
0 240 -1045 0 -1045 0 0 -895z m2080 655 l0 -230 -690 0 -691 0 3 -112 3 -113
688 -3 687 -2 0 -200 0 -200 -690 0 -690 0 0 -110 0 -110 690 0 690 0 0 -230
0 -230 -1035 0 -1035 0 0 885 0 885 1035 0 1035 0 0 -230z"/>
<path d="M730 5630 l0 -890 355 0 355 0 2 446 3 446 328 -446 329 -446 188 0
189 0 133 183 c74 100 222 303 329 452 l194 270 5 -270 5 -270 3 283 c1 155 0
282 -2 282 -3 0 -119 -159 -259 -352 -140 -194 -290 -400 -333 -458 l-79 -105
-185 0 -185 0 -64 85 c-35 47 -185 251 -335 454 l-271 369 -3 -456 -2 -457
-345 0 -345 0 0 880 0 880 438 -1 437 0 335 -430 c184 -236 338 -428 342 -427
8 3 567 711 632 800 l41 57 443 0 442 1 0 -880 0 -880 -345 0 -345 0 -3 178
-2 177 -3 -182 -2 -183 355 0 355 0 0 890 0 890 -449 0 -449 0 -58 -77 c-121
-161 -607 -773 -614 -773 -4 0 -158 191 -341 425 l-333 425 -443 0 -443 0 0
-890z"/>
<path d="M4030 5630 l0 -890 353 2 352 3 3 888 2 887 -355 0 -355 0 0 -890z
m698 3 l-3 -878 -342 -3 -343 -2 0 880 0 880 345 0 345 0 -2 -877z"/>
<path d="M4902 5634 l3 -889 355 0 355 0 3 213 2 212 297 -2 297 -3 164 -212
163 -213 374 0 c236 0 375 4 375 10 0 5 -81 114 -180 242 -99 128 -180 236
-180 239 0 3 35 29 78 57 94 61 185 156 229 237 88 167 106 404 43 583 -43
122 -177 273 -292 330 -163 80 -69 73 -1136 79 l-952 6 2 -889z m1958 846 c98
-33 193 -86 247 -138 67 -65 141 -171 163 -236 62 -175 44 -416 -42 -579 -42
-80 -142 -180 -241 -241 -53 -33 -75 -52 -69 -60 120 -151 352 -459 352 -466
0 -6 -134 -10 -363 -10 l-362 0 -164 215 -164 215 -303 0 -304 0 -2 -212 -3
-213 -345 0 -345 0 -3 879 -2 879 942 -5 c939 -6 943 -6 1008 -28z"/>
<path d="M5610 5850 l0 -150 448 0 c281 0 461 4 485 11 46 12 100 58 117 99
17 42 0 100 -41 134 -62 53 -94 56 -571 56 l-438 0 0 -150z m965 110 c66 -34
93 -84 76 -140 -13 -45 -57 -85 -109 -100 -23 -6 -206 -10 -479 -10 l-443 0 0
140 0 141 453 -3 453 -3 49 -25z"/>
<path d="M8252 6448 c-45 -82 -720 -1349 -830 -1559 -40 -75 -72 -139 -72
-142 0 -4 178 -7 395 -7 365 0 396 1 405 18 6 9 39 78 73 152 l63 135 434 0
435 0 64 -152 64 -153 405 0 c375 0 404 1 398 17 -4 9 -219 410 -478 890
l-470 873 -423 0 -424 0 -39 -72z m1350 -808 c257 -476 467 -871 467 -878 1
-10 -80 -12 -391 -10 l-391 3 -62 150 -63 150 -442 0 -442 0 -69 -150 -68
-150 -386 -3 c-276 -1 -385 1 -385 9 0 6 133 261 296 567 163 307 371 698 463
869 l166 313 420 -3 419 -2 468 -865z"/>
<path d="M8591 5738 c-61 -134 -111 -246 -111 -250 0 -12 470 -10 470 2 0 11
-238 490 -244 490 -1 0 -53 -109 -115 -242z m234 -8 c63 -126 115 -232 115
-235 0 -3 -102 -5 -226 -5 -124 0 -224 4 -222 8 12 32 213 462 215 462 2 0 55
-103 118 -230z"/>
<path d="M10142 5633 l3 -888 1045 0 1045 0 0 285 0 285 -687 3 -688 2 0 600
0 600 -360 0 -360 0 2 -887z m708 277 l0 -600 688 -2 687 -3 0 -275 0 -275
-1035 0 -1035 0 -3 878 -2 877 350 0 350 0 0 -600z"/>
<path d="M12380 5630 l0 -890 1043 2 1042 3 3 288 2 287 -690 0 -690 0 0 600
0 600 -355 0 -355 0 0 -890z m700 280 l0 -600 690 0 690 0 -2 -277 -3 -278
-1032 -3 -1033 -2 0 880 0 880 345 0 345 0 0 -600z"/>
<path d="M18183 5843 c26 -2 67 -2 90 0 23 2 2 3 -48 3 -49 0 -68 -1 -42 -3z"/>
<path d="M18400 5829 c473 -53 739 -167 828 -356 25 -53 27 -68 26 -173 -1
-139 -21 -202 -90 -279 -277 -308 -1168 -429 -1764 -239 -281 89 -468 249
-525 449 -13 45 -15 48 -11 15 8 -59 67 -174 120 -233 54 -60 182 -148 269
-187 411 -181 1079 -194 1551 -29 171 59 277 123 364 217 75 83 95 143 96 286
1 111 0 118 -32 182 -80 163 -283 270 -621 327 -69 12 -163 23 -210 26 l-86 4
85 -10z"/>
<path d="M18235 5405 c228 -28 307 -68 258 -133 -53 -71 -195 -106 -403 -99
-218 8 -369 51 -459 132 l-38 35 -372 0 -371 0 1 -27 c2 -24 2 -25 6 -5 l4 22
365 0 366 0 30 -30 c91 -92 313 -147 551 -137 147 5 233 27 292 71 47 36 60
62 46 92 -21 46 -129 78 -306 88 -85 5 -83 4 30 -9z"/>
</g>
</svg>
